<svg width="46" height="38" viewBox="0 0 46 38" fill="none" xmlns="http://www.w3.org/2000/svg">
<path d="M46 18.3514V19.9987C45.9834 20.0877 45.9693 20.1767 45.9578 20.2656C45.8812 20.9809 45.8294 21.7045 45.7202 22.4135C45.3693 24.7047 44.6031 26.8972 43.4662 28.8632C41.7865 31.8349 39.3631 34.2242 36.4799 35.7509C34.7891 36.6631 32.9654 37.2487 31.0903 37.4817L29.8406 37.6297H13.6812C13.5988 37.613 13.5183 37.588 13.4358 37.5818C11.8178 37.476 10.2295 37.061 8.74383 36.3556C5.49125 34.8063 3.06667 32.2956 1.47775 28.8403C0.776916 27.3168 0.323032 25.6731 0.136083 23.9816L0 22.745V21.1456C0.0153333 21.056 0.0383333 20.9684 0.0440833 20.8787C0.121881 19.3507 0.420051 17.8455 0.927667 16.4183C2.3 12.5626 4.69583 9.7058 8.09217 7.8499C9.84119 6.90401 11.7529 6.367 13.7042 6.27344C14.6664 6.22283 15.631 6.271 16.5849 6.41732C16.6836 6.42476 16.7811 6.39038 16.8571 6.3214C18.2198 4.79926 19.8127 3.54305 21.5663 2.60752C23.2666 1.69384 25.0989 1.10621 26.9828 0.870487C27.4301 0.81627 27.8773 0.765528 28.3245 0.718262H29.7045C29.7939 0.734944 29.8834 0.749541 29.9728 0.762052C30.6571 0.849634 31.3432 0.903851 32.0198 1.02688C34.1098 1.41273 36.1105 2.23865 37.9097 3.45831C40.6544 5.28473 42.8617 7.92712 44.2712 11.0737C45.1107 12.915 45.6492 14.9002 45.862 16.9417L46 18.3514ZM20.2783 7.68934C20.3071 7.73104 20.3147 7.74773 20.3262 7.75398C21.2731 8.26279 22.1739 8.8557 23.0287 9.53272C23.0824 9.57443 23.2166 9.55774 23.2817 9.51187C25.6239 7.89786 28.1635 7.3411 30.8909 7.86659C33.5647 8.38165 35.7401 9.83508 37.4018 12.156C39.284 14.7834 40.0028 17.7529 39.4814 21.0601C39.1345 23.2726 38.318 25.2599 36.9322 26.9239C34.4022 29.9601 31.2359 31.2133 27.508 30.6837C25.2585 30.3776 23.1721 29.2463 21.5932 27.4765C19.4887 25.1619 17.3688 22.866 15.2586 20.5576C14.9768 20.251 14.6644 20.005 14.26 19.9508C13.924 19.9007 13.5821 19.9689 13.2842 20.1452C12.9863 20.3215 12.748 20.5968 12.604 20.9308C12.3318 21.5481 12.3663 22.2446 12.9586 22.8785C15.3103 25.3912 17.6429 27.9269 19.9927 30.4418C20.3952 30.8769 20.8259 31.2752 21.2846 31.6366C23.0019 32.9921 24.9377 33.7428 27.0346 34.0451C28.6653 34.2941 30.3238 34.2234 31.9317 33.8366C34.9479 33.1281 37.6521 31.3224 39.5983 28.7173C41.2437 26.573 42.2917 23.9619 42.619 21.1915C42.8252 19.5826 42.7831 17.9475 42.4944 16.3537C42.0267 13.745 41.0128 11.4116 39.3894 9.42637C36.2882 5.63951 32.3878 3.94835 27.7476 4.32579C25.9759 4.48182 24.2528 5.03338 22.6857 5.94605C21.8285 6.43121 21.022 7.0157 20.2803 7.68934H20.2783ZM19.1456 34.1244L18.9539 33.9304C17.9937 32.942 17.0257 31.9599 16.0751 30.9589C15.9989 30.8649 15.9042 30.7907 15.798 30.742C15.6918 30.6932 15.5769 30.6712 15.4618 30.6774C14.4996 30.7024 13.5355 30.7087 12.5868 30.4751C7.86983 29.3136 5.13092 23.7334 6.86933 18.8247C8.23975 14.9524 12.0367 12.5939 15.7799 13.3217C17.457 13.647 18.9309 14.4206 20.1403 15.776C21.6143 17.4317 23.1303 19.0416 24.6215 20.6806C24.9607 21.0539 25.3498 21.2228 25.8213 21.1498C26.427 21.056 26.9119 20.7411 27.1304 20.0926C27.2421 19.8013 27.2702 19.4802 27.211 19.1713C27.1518 18.8624 27.0081 18.5802 26.7988 18.3618C25.2348 16.6393 23.7073 14.8731 22.08 13.2216C18.9233 10.0186 15.203 9.06771 11.086 10.4273C5.55067 12.2582 2.30958 18.4765 3.57458 24.6155C4.12131 27.3184 5.5013 29.7366 7.48544 31.4686C9.46958 33.2005 11.9385 34.1421 14.4823 34.1369H18.8887C18.9616 34.1369 19.0344 34.1306 19.1456 34.1244Z" fill="black"/>
</svg>
