<svg width="364" height="23" viewBox="0 0 364 23" fill="none" xmlns="http://www.w3.org/2000/svg">
<path d="M1.98781 12.5C1.15941 12.5068 0.493315 13.1838 0.50005 14.0122C0.506784 14.8406 1.18379 15.5067 2.01219 15.5L1.98781 12.5ZM363.057 12.1253C363.638 11.5347 363.631 10.585 363.04 10.004L353.417 0.536C352.826 -0.0450054 351.877 -0.0372842 351.296 0.553246C350.715 1.14378 350.722 2.09349 351.313 2.6745L359.867 11.0905L351.451 19.6445C350.87 20.235 350.878 21.1847 351.468 21.7657C352.059 22.3468 353.008 22.339 353.589 21.7485L363.057 12.1253ZM2.01219 15.5L362 12.5732L361.976 9.57332L1.98781 12.5L2.01219 15.5Z" fill="white"/>
</svg>
