<svg width="47" height="28" viewBox="0 0 47 28" fill="none" xmlns="http://www.w3.org/2000/svg">
<path d="M40.5336 13.7948C40.5336 14.6562 40.091 14.7959 38.9865 14.7959C37.8193 14.7959 37.6039 14.6019 37.4786 13.7211C37.2475 11.486 35.7239 9.58845 33.1683 9.37503C32.3497 9.30906 32.1539 9.00639 32.1539 8.00525C32.1539 7.07395 32.2988 6.63159 33.0273 6.63159C37.4629 6.65099 40.5336 10.186 40.5336 13.7909V13.7948ZM46.9961 13.7948C46.9961 7.08948 42.4175 0 31.8386 0H10.81C10.3831 0 10.1167 0.213421 10.1167 0.601461C10.1167 0.812942 10.2773 1.00696 10.4222 1.10591C11.1821 1.70737 12.3218 2.3748 13.8102 3.11595C15.2652 3.83771 16.401 4.31111 17.5369 4.769C18.0186 4.96302 18.1949 5.17256 18.1949 5.43643C18.1949 5.80507 17.9285 6.03401 17.4115 6.03401H0.7285C0.231083 6.03401 0 6.3522 0 6.66651C0 6.93038 0.0861667 7.15932 0.31725 7.38827C1.6685 8.79685 3.83442 10.4848 6.97558 12.4405C9.8465 14.2061 12.8114 15.8165 15.8527 17.2755C16.3149 17.4889 16.4559 17.7334 16.4559 17.9973C16.4402 18.296 16.2091 18.5405 15.6725 18.5405H8.02917C7.60617 18.5405 7.3555 18.7733 7.3555 19.1226C7.3555 19.3166 7.51217 19.5611 7.72758 19.7551C9.46658 21.3227 12.2533 23.0301 15.9663 24.5939C20.9209 26.6893 25.942 27.933 31.5938 27.933C42.2961 27.933 47 20.0034 47 13.7909L46.9961 13.7948ZM33.0273 23.6975C27.5557 23.6975 22.9771 19.2817 22.9771 13.7754C22.9771 8.35448 27.54 3.9968 33.0273 3.9968C38.634 3.9968 43.0363 8.34284 43.0363 13.7754C43.0436 15.0799 42.7897 16.3729 42.2894 17.5796C41.789 18.7863 41.0521 19.8827 40.1213 20.8054C39.1905 21.7281 38.0843 22.4588 36.8666 22.9553C35.6489 23.4517 34.344 23.704 33.0273 23.6975Z" fill="black"/>
</svg>
