<svg width="37" height="34" viewBox="0 0 37 34" fill="none" xmlns="http://www.w3.org/2000/svg">
<path d="M36.9999 4.83537V29.5241C37.0067 30.6091 36.4784 31.6518 35.5313 32.4229C34.5841 33.1941 33.2956 33.6306 31.949 33.6364C31.7397 33.6376 31.5305 33.6284 31.3226 33.609C30.0658 33.4587 28.9205 32.9435 28.1022 32.1604C27.2839 31.3773 26.8491 30.3802 26.8794 29.3568V5.00271C26.8493 3.97826 27.2854 2.98032 28.1054 2.19704C28.9254 1.41377 30.0728 0.89926 31.3311 0.750525C32.045 0.683343 32.7685 0.739037 33.4537 0.913925C34.1389 1.08881 34.7702 1.37891 35.3059 1.76503C35.8416 2.15116 36.2694 2.62451 36.5612 3.1538C36.8529 3.68308 37.0036 4.25624 36.9999 4.83537ZM5.15393 25.4886C4.48159 25.4787 3.81355 25.5768 3.18881 25.7773C2.56407 25.9777 1.99516 26.2765 1.51533 26.6561C1.0355 27.0357 0.654363 27.4885 0.394184 27.9881C0.134004 28.4877 0 29.0241 0 29.5659C0 30.1078 0.134004 30.6442 0.394184 31.1438C0.654363 31.6434 1.0355 32.0962 1.51533 32.4758C1.99516 32.8554 2.56407 33.1542 3.18881 33.3546C3.81355 33.5551 4.48159 33.6532 5.15393 33.6432C6.47992 33.6236 7.74338 33.1855 8.67252 32.423C9.60166 31.6604 10.1222 30.6345 10.1222 29.5659C10.1222 28.4974 9.60166 27.4714 8.67252 26.7089C7.74338 25.9464 6.47992 25.5082 5.15393 25.4886ZM18.5549 13.1299H18.4698C17.1187 13.1894 15.8494 13.6702 14.9306 14.4705C14.0117 15.2708 13.5153 16.3278 13.5465 17.4177V28.3705C13.5465 31.343 15.1706 33.1467 17.5471 33.5321C18.2845 33.6527 19.046 33.6394 19.7763 33.4934C20.5065 33.3473 21.1873 33.0721 21.7692 32.6877C22.3511 32.3033 22.8194 31.8193 23.1403 31.271C23.4613 30.7226 23.6266 30.1235 23.6245 29.5173V17.2284C23.6256 16.6911 23.4954 16.1589 23.2412 15.6621C22.9871 15.1653 22.6139 14.7137 22.1432 14.3332C21.6724 13.9526 21.1132 13.6504 20.4976 13.444C19.8819 13.2375 19.2218 13.1308 18.5549 13.1299Z" fill="black"/>
</svg>
