<svg width="118" height="30" viewBox="0 0 118 30" fill="none" xmlns="http://www.w3.org/2000/svg">
<path d="M0.91 14L6.58 1.4H8.884L14.572 14H12.124L7.246 2.642H8.182L3.322 14H0.91ZM3.52 11.084L4.15 9.248H10.954L11.584 11.084H3.52ZM18.8585 14.126C17.9345 14.126 17.1005 13.922 16.3565 13.514C15.6245 13.094 15.0485 12.518 14.6285 11.786C14.2085 11.054 13.9985 10.19 13.9985 9.194C13.9985 8.198 14.2085 7.334 14.6285 6.602C15.0485 5.87 15.6245 5.3 16.3565 4.892C17.1005 4.484 17.9345 4.28 18.8585 4.28C19.6625 4.28 20.3825 4.46 21.0185 4.82C21.6545 5.168 22.1585 5.702 22.5305 6.422C22.9025 7.142 23.0885 8.066 23.0885 9.194C23.0885 10.31 22.9085 11.234 22.5485 11.966C22.1885 12.686 21.6905 13.226 21.0545 13.586C20.4185 13.946 19.6865 14.126 18.8585 14.126ZM19.1285 12.2C19.6685 12.2 20.1485 12.08 20.5685 11.84C21.0005 11.6 21.3425 11.252 21.5945 10.796C21.8585 10.34 21.9905 9.806 21.9905 9.194C21.9905 8.57 21.8585 8.036 21.5945 7.592C21.3425 7.136 21.0005 6.788 20.5685 6.548C20.1485 6.308 19.6685 6.188 19.1285 6.188C18.5885 6.188 18.1025 6.308 17.6705 6.548C17.2505 6.788 16.9085 7.136 16.6445 7.592C16.3925 8.036 16.2665 8.57 16.2665 9.194C16.2665 9.806 16.3925 10.34 16.6445 10.796C16.9085 11.252 17.2505 11.6 17.6705 11.84C18.1025 12.08 18.5885 12.2 19.1285 12.2ZM22.0445 14V11.732L22.1345 9.176L21.9545 6.62V0.643999H24.1865V14H22.0445ZM30.388 14.126C29.404 14.126 28.528 13.916 27.76 13.496C26.992 13.064 26.386 12.476 25.942 11.732C25.498 10.988 25.276 10.142 25.276 9.194C25.276 8.234 25.498 7.388 25.942 6.656C26.386 5.912 26.992 5.33 27.76 4.91C28.528 4.49 29.404 4.28 30.388 4.28C31.384 4.28 32.266 4.49 33.034 4.91C33.814 5.33 34.42 5.906 34.852 6.638C35.296 7.37 35.518 8.222 35.518 9.194C35.518 10.142 35.296 10.988 34.852 11.732C34.42 12.476 33.814 13.064 33.034 13.496C32.266 13.916 31.384 14.126 30.388 14.126ZM30.388 12.2C30.94 12.2 31.432 12.08 31.864 11.84C32.296 11.6 32.632 11.252 32.872 10.796C33.124 10.34 33.25 9.806 33.25 9.194C33.25 8.57 33.124 8.036 32.872 7.592C32.632 7.136 32.296 6.788 31.864 6.548C31.432 6.308 30.946 6.188 30.406 6.188C29.854 6.188 29.362 6.308 28.93 6.548C28.51 6.788 28.174 7.136 27.922 7.592C27.67 8.036 27.544 8.57 27.544 9.194C27.544 9.806 27.67 10.34 27.922 10.796C28.174 11.252 28.51 11.6 28.93 11.84C29.362 12.08 29.848 12.2 30.388 12.2ZM41.9175 14.126C41.1015 14.126 40.3755 13.946 39.7395 13.586C39.1035 13.226 38.5995 12.686 38.2275 11.966C37.8675 11.234 37.6875 10.31 37.6875 9.194C37.6875 8.066 37.8735 7.142 38.2455 6.422C38.6295 5.702 39.1395 5.168 39.7755 4.82C40.4235 4.46 41.1375 4.28 41.9175 4.28C42.8655 4.28 43.6995 4.484 44.4195 4.892C45.1515 5.3 45.7275 5.87 46.1475 6.602C46.5795 7.334 46.7955 8.198 46.7955 9.194C46.7955 10.19 46.5795 11.054 46.1475 11.786C45.7275 12.518 45.1515 13.094 44.4195 13.514C43.6995 13.922 42.8655 14.126 41.9175 14.126ZM36.5895 14V0.643999H38.8395V6.62L38.6595 9.176L38.7315 11.732V14H36.5895ZM41.6655 12.2C42.2055 12.2 42.6855 12.08 43.1055 11.84C43.5375 11.6 43.8795 11.252 44.1315 10.796C44.3835 10.34 44.5095 9.806 44.5095 9.194C44.5095 8.57 44.3835 8.036 44.1315 7.592C43.8795 7.136 43.5375 6.788 43.1055 6.548C42.6855 6.308 42.2055 6.188 41.6655 6.188C41.1255 6.188 40.6395 6.308 40.2075 6.548C39.7755 6.788 39.4335 7.136 39.1815 7.592C38.9295 8.036 38.8035 8.57 38.8035 9.194C38.8035 9.806 38.9295 10.34 39.1815 10.796C39.4335 11.252 39.7755 11.6 40.2075 11.84C40.6395 12.08 41.1255 12.2 41.6655 12.2ZM52.3674 14.126C51.2994 14.126 50.3634 13.916 49.5594 13.496C48.7674 13.064 48.1494 12.476 47.7054 11.732C47.2734 10.988 47.0574 10.142 47.0574 9.194C47.0574 8.234 47.2674 7.388 47.6874 6.656C48.1194 5.912 48.7074 5.33 49.4514 4.91C50.2074 4.49 51.0654 4.28 52.0254 4.28C52.9614 4.28 53.7954 4.484 54.5274 4.892C55.2594 5.3 55.8354 5.876 56.2554 6.62C56.6754 7.364 56.8854 8.24 56.8854 9.248C56.8854 9.344 56.8794 9.452 56.8674 9.572C56.8674 9.692 56.8614 9.806 56.8494 9.914H48.8394V8.42H55.6614L54.7794 8.888C54.7914 8.336 54.6774 7.85 54.4374 7.43C54.1974 7.01 53.8674 6.68 53.4474 6.44C53.0394 6.2 52.5654 6.08 52.0254 6.08C51.4734 6.08 50.9874 6.2 50.5674 6.44C50.1594 6.68 49.8354 7.016 49.5954 7.448C49.3674 7.868 49.2534 8.366 49.2534 8.942V9.302C49.2534 9.878 49.3854 10.388 49.6494 10.832C49.9134 11.276 50.2854 11.618 50.7654 11.858C51.2454 12.098 51.7974 12.218 52.4214 12.218C52.9614 12.218 53.4474 12.134 53.8794 11.966C54.3114 11.798 54.6954 11.534 55.0314 11.174L56.2374 12.56C55.8054 13.064 55.2594 13.454 54.5994 13.73C53.9514 13.994 53.2074 14.126 52.3674 14.126ZM8.524 29.18C7.564 29.18 6.67 29.024 5.842 28.712C5.026 28.388 4.312 27.938 3.7 27.362C3.1 26.774 2.632 26.084 2.296 25.292C1.96 24.5 1.792 23.636 1.792 22.7C1.792 21.764 1.96 20.9 2.296 20.108C2.632 19.316 3.106 18.632 3.718 18.056C4.33 17.468 5.044 17.018 5.86 16.706C6.676 16.382 7.57 16.22 8.542 16.22C9.574 16.22 10.516 16.4 11.368 16.76C12.22 17.108 12.94 17.63 13.528 18.326L12.016 19.748C11.56 19.256 11.05 18.89 10.486 18.65C9.922 18.398 9.31 18.272 8.65 18.272C7.99 18.272 7.384 18.38 6.832 18.596C6.292 18.812 5.818 19.118 5.41 19.514C5.014 19.91 4.702 20.378 4.474 20.918C4.258 21.458 4.15 22.052 4.15 22.7C4.15 23.348 4.258 23.942 4.474 24.482C4.702 25.022 5.014 25.49 5.41 25.886C5.818 26.282 6.292 26.588 6.832 26.804C7.384 27.02 7.99 27.128 8.65 27.128C9.31 27.128 9.922 27.008 10.486 26.768C11.05 26.516 11.56 26.138 12.016 25.634L13.528 27.074C12.94 27.758 12.22 28.28 11.368 28.64C10.516 29 9.568 29.18 8.524 29.18ZM14.4741 29V19.388H16.6161V22.034L16.3641 21.26C16.6521 20.612 17.1021 20.12 17.7141 19.784C18.3381 19.448 19.1121 19.28 20.0361 19.28V21.422C19.9401 21.398 19.8501 21.386 19.7661 21.386C19.6821 21.374 19.5981 21.368 19.5141 21.368C18.6621 21.368 17.9841 21.62 17.4801 22.124C16.9761 22.616 16.7241 23.354 16.7241 24.338V29H14.4741ZM25.2949 29.126C24.2269 29.126 23.2909 28.916 22.4869 28.496C21.6949 28.064 21.0769 27.476 20.6329 26.732C20.2009 25.988 19.9849 25.142 19.9849 24.194C19.9849 23.234 20.1949 22.388 20.6149 21.656C21.0469 20.912 21.6349 20.33 22.3789 19.91C23.1349 19.49 23.9929 19.28 24.9529 19.28C25.8889 19.28 26.7229 19.484 27.4549 19.892C28.1869 20.3 28.7629 20.876 29.1829 21.62C29.6029 22.364 29.8129 23.24 29.8129 24.248C29.8129 24.344 29.8069 24.452 29.7949 24.572C29.7949 24.692 29.7889 24.806 29.7769 24.914H21.7669V23.42H28.5889L27.7069 23.888C27.7189 23.336 27.6049 22.85 27.3649 22.43C27.1249 22.01 26.7949 21.68 26.3749 21.44C25.9669 21.2 25.4929 21.08 24.9529 21.08C24.4009 21.08 23.9149 21.2 23.4949 21.44C23.0869 21.68 22.7629 22.016 22.5229 22.448C22.2949 22.868 22.1809 23.366 22.1809 23.942V24.302C22.1809 24.878 22.3129 25.388 22.5769 25.832C22.8409 26.276 23.2129 26.618 23.6929 26.858C24.1729 27.098 24.7249 27.218 25.3489 27.218C25.8889 27.218 26.3749 27.134 26.8069 26.966C27.2389 26.798 27.6229 26.534 27.9589 26.174L29.1649 27.56C28.7329 28.064 28.1869 28.454 27.5269 28.73C26.8789 28.994 26.1349 29.126 25.2949 29.126ZM36.5525 29V27.056L36.4265 26.642V23.24C36.4265 22.58 36.2285 22.07 35.8325 21.71C35.4365 21.338 34.8365 21.152 34.0325 21.152C33.4925 21.152 32.9585 21.236 32.4305 21.404C31.9145 21.572 31.4765 21.806 31.1165 22.106L30.2345 20.468C30.7505 20.072 31.3625 19.778 32.0705 19.586C32.7905 19.382 33.5345 19.28 34.3025 19.28C35.6945 19.28 36.7685 19.616 37.5245 20.288C38.2925 20.948 38.6765 21.974 38.6765 23.366V29H36.5525ZM33.5285 29.126C32.8085 29.126 32.1785 29.006 31.6385 28.766C31.0985 28.514 30.6785 28.172 30.3785 27.74C30.0905 27.296 29.9465 26.798 29.9465 26.246C29.9465 25.706 30.0725 25.22 30.3245 24.788C30.5885 24.356 31.0145 24.014 31.6025 23.762C32.1905 23.51 32.9705 23.384 33.9425 23.384H36.7325V24.878H34.1045C33.3365 24.878 32.8205 25.004 32.5565 25.256C32.2925 25.496 32.1605 25.796 32.1605 26.156C32.1605 26.564 32.3225 26.888 32.6465 27.128C32.9705 27.368 33.4205 27.488 33.9965 27.488C34.5485 27.488 35.0405 27.362 35.4725 27.11C35.9165 26.858 36.2345 26.486 36.4265 25.994L36.8045 27.344C36.5885 27.908 36.1985 28.346 35.6345 28.658C35.0825 28.97 34.3805 29.126 33.5285 29.126ZM44.1021 29.126C43.0461 29.126 42.2301 28.856 41.6541 28.316C41.0781 27.764 40.7901 26.954 40.7901 25.886V17.264H43.0401V25.832C43.0401 26.288 43.1541 26.642 43.3821 26.894C43.6221 27.146 43.9521 27.272 44.3721 27.272C44.8761 27.272 45.2961 27.14 45.6321 26.876L46.2621 28.478C45.9981 28.694 45.6741 28.856 45.2901 28.964C44.9061 29.072 44.5101 29.126 44.1021 29.126ZM39.2061 21.26V19.46H45.6141V21.26H39.2061ZM47.033 29V19.388H49.283V29H47.033ZM48.167 17.804C47.747 17.804 47.399 17.672 47.123 17.408C46.859 17.144 46.727 16.826 46.727 16.454C46.727 16.07 46.859 15.752 47.123 15.5C47.399 15.236 47.747 15.104 48.167 15.104C48.587 15.104 48.929 15.23 49.193 15.482C49.469 15.722 49.607 16.028 49.607 16.4C49.607 16.796 49.475 17.132 49.211 17.408C48.947 17.672 48.599 17.804 48.167 17.804ZM53.7122 29L49.5902 19.388H51.9302L55.4762 27.866H54.3242L57.9962 19.388H60.1562L56.0342 29H53.7122ZM64.7367 29.126C63.6687 29.126 62.7327 28.916 61.9287 28.496C61.1367 28.064 60.5187 27.476 60.0747 26.732C59.6427 25.988 59.4267 25.142 59.4267 24.194C59.4267 23.234 59.6367 22.388 60.0567 21.656C60.4887 20.912 61.0767 20.33 61.8207 19.91C62.5767 19.49 63.4347 19.28 64.3947 19.28C65.3307 19.28 66.1647 19.484 66.8967 19.892C67.6287 20.3 68.2047 20.876 68.6247 21.62C69.0447 22.364 69.2547 23.24 69.2547 24.248C69.2547 24.344 69.2487 24.452 69.2367 24.572C69.2367 24.692 69.2307 24.806 69.2187 24.914H61.2087V23.42H68.0307L67.1487 23.888C67.1607 23.336 67.0467 22.85 66.8067 22.43C66.5667 22.01 66.2367 21.68 65.8167 21.44C65.4087 21.2 64.9347 21.08 64.3947 21.08C63.8427 21.08 63.3567 21.2 62.9367 21.44C62.5287 21.68 62.2047 22.016 61.9647 22.448C61.7367 22.868 61.6227 23.366 61.6227 23.942V24.302C61.6227 24.878 61.7547 25.388 62.0187 25.832C62.2827 26.276 62.6547 26.618 63.1347 26.858C63.6147 27.098 64.1667 27.218 64.7907 27.218C65.3307 27.218 65.8167 27.134 66.2487 26.966C66.6807 26.798 67.0647 26.534 67.4007 26.174L68.6067 27.56C68.1747 28.064 67.6287 28.454 66.9687 28.73C66.3207 28.994 65.5767 29.126 64.7367 29.126ZM76.384 29.18C75.424 29.18 74.53 29.024 73.702 28.712C72.886 28.388 72.172 27.938 71.56 27.362C70.96 26.774 70.492 26.084 70.156 25.292C69.82 24.5 69.652 23.636 69.652 22.7C69.652 21.764 69.82 20.9 70.156 20.108C70.492 19.316 70.966 18.632 71.578 18.056C72.19 17.468 72.904 17.018 73.72 16.706C74.536 16.382 75.43 16.22 76.402 16.22C77.434 16.22 78.376 16.4 79.228 16.76C80.08 17.108 80.8 17.63 81.388 18.326L79.876 19.748C79.42 19.256 78.91 18.89 78.346 18.65C77.782 18.398 77.17 18.272 76.51 18.272C75.85 18.272 75.244 18.38 74.692 18.596C74.152 18.812 73.678 19.118 73.27 19.514C72.874 19.91 72.562 20.378 72.334 20.918C72.118 21.458 72.01 22.052 72.01 22.7C72.01 23.348 72.118 23.942 72.334 24.482C72.562 25.022 72.874 25.49 73.27 25.886C73.678 26.282 74.152 26.588 74.692 26.804C75.244 27.02 75.85 27.128 76.51 27.128C77.17 27.128 77.782 27.008 78.346 26.768C78.91 26.516 79.42 26.138 79.876 25.634L81.388 27.074C80.8 27.758 80.08 28.28 79.228 28.64C78.376 29 77.428 29.18 76.384 29.18ZM82.3341 29V15.644H84.5841V29H82.3341ZM90.7772 29.126C89.7932 29.126 88.9172 28.916 88.1492 28.496C87.3812 28.064 86.7752 27.476 86.3312 26.732C85.8872 25.988 85.6652 25.142 85.6652 24.194C85.6652 23.234 85.8872 22.388 86.3312 21.656C86.7752 20.912 87.3812 20.33 88.1492 19.91C88.9172 19.49 89.7932 19.28 90.7772 19.28C91.7732 19.28 92.6552 19.49 93.4232 19.91C94.2032 20.33 94.8092 20.906 95.2412 21.638C95.6852 22.37 95.9072 23.222 95.9072 24.194C95.9072 25.142 95.6852 25.988 95.2412 26.732C94.8092 27.476 94.2032 28.064 93.4232 28.496C92.6552 28.916 91.7732 29.126 90.7772 29.126ZM90.7772 27.2C91.3292 27.2 91.8212 27.08 92.2532 26.84C92.6852 26.6 93.0212 26.252 93.2612 25.796C93.5132 25.34 93.6392 24.806 93.6392 24.194C93.6392 23.57 93.5132 23.036 93.2612 22.592C93.0212 22.136 92.6852 21.788 92.2532 21.548C91.8212 21.308 91.3352 21.188 90.7952 21.188C90.2432 21.188 89.7512 21.308 89.3192 21.548C88.8992 21.788 88.5632 22.136 88.3112 22.592C88.0592 23.036 87.9332 23.57 87.9332 24.194C87.9332 24.806 88.0592 25.34 88.3112 25.796C88.5632 26.252 88.8992 26.6 89.3192 26.84C89.7512 27.08 90.2372 27.2 90.7772 27.2ZM101.047 29.126C100.231 29.126 99.5108 28.976 98.8868 28.676C98.2628 28.364 97.7768 27.896 97.4288 27.272C97.0808 26.636 96.9068 25.838 96.9068 24.878V19.388H99.1568V24.572C99.1568 25.436 99.3488 26.084 99.7328 26.516C100.129 26.936 100.687 27.146 101.407 27.146C101.935 27.146 102.391 27.038 102.775 26.822C103.171 26.606 103.477 26.282 103.693 25.85C103.921 25.418 104.035 24.884 104.035 24.248V19.388H106.285V29H104.143V26.408L104.521 27.2C104.197 27.824 103.723 28.304 103.099 28.64C102.475 28.964 101.791 29.126 101.047 29.126ZM112.219 29.126C111.295 29.126 110.461 28.922 109.717 28.514C108.985 28.094 108.409 27.518 107.989 26.786C107.569 26.054 107.359 25.19 107.359 24.194C107.359 23.198 107.569 22.334 107.989 21.602C108.409 20.87 108.985 20.3 109.717 19.892C110.461 19.484 111.295 19.28 112.219 19.28C113.023 19.28 113.743 19.46 114.379 19.82C115.015 20.168 115.519 20.702 115.891 21.422C116.263 22.142 116.449 23.066 116.449 24.194C116.449 25.31 116.269 26.234 115.909 26.966C115.549 27.686 115.051 28.226 114.415 28.586C113.779 28.946 113.047 29.126 112.219 29.126ZM112.489 27.2C113.029 27.2 113.509 27.08 113.929 26.84C114.361 26.6 114.703 26.252 114.955 25.796C115.219 25.34 115.351 24.806 115.351 24.194C115.351 23.57 115.219 23.036 114.955 22.592C114.703 22.136 114.361 21.788 113.929 21.548C113.509 21.308 113.029 21.188 112.489 21.188C111.949 21.188 111.463 21.308 111.031 21.548C110.611 21.788 110.269 22.136 110.005 22.592C109.753 23.036 109.627 23.57 109.627 24.194C109.627 24.806 109.753 25.34 110.005 25.796C110.269 26.252 110.611 26.6 111.031 26.84C111.463 27.08 111.949 27.2 112.489 27.2ZM115.405 29V26.732L115.495 24.176L115.315 21.62V15.644H117.547V29H115.405Z" fill="white"/>
</svg>
