<svg width="129" height="19" viewBox="0 0 129 19" fill="none" xmlns="http://www.w3.org/2000/svg">
<path d="M6.488 14.18C5.024 14.18 3.812 13.904 2.852 13.352C1.904 12.8 1.19 12.032 0.71 11.048C0.242 10.052 0.00800003 8.888 0.00800003 7.556C0.00800003 6.26 0.254 5.12 0.746 4.136C1.238 3.14 1.97 2.366 2.942 1.814C3.926 1.25 5.138 0.967999 6.578 0.967999C8.018 0.967999 9.098 1.166 9.818 1.562C10.538 1.958 10.898 2.45 10.898 3.038C10.898 3.446 10.712 3.788 10.34 4.064C9.968 4.34 9.452 4.478 8.792 4.478C8.792 4.022 8.714 3.614 8.558 3.254C8.402 2.894 8.156 2.606 7.82 2.39C7.496 2.162 7.064 2.048 6.524 2.048C5.144 2.048 4.16 2.528 3.572 3.488C2.984 4.436 2.69 5.792 2.69 7.556C2.69 9.32 2.996 10.676 3.608 11.624C4.22 12.56 5.27 13.028 6.758 13.028C7.022 13.028 7.28 13.016 7.532 12.992C7.796 12.968 8.036 12.926 8.252 12.866V10.13C8.252 9.638 8.132 9.308 7.892 9.14C7.652 8.96 7.328 8.87 6.92 8.87H6.74V7.988H12.068V8.87H11.888C11.528 8.87 11.246 8.96 11.042 9.14C10.85 9.32 10.754 9.674 10.754 10.202V13.262C10.094 13.562 9.416 13.79 8.72 13.946C8.036 14.102 7.292 14.18 6.488 14.18ZM16.8196 14.18C15.4276 14.18 14.3296 13.766 13.5256 12.938C12.7336 12.11 12.3376 10.844 12.3376 9.14C12.3376 7.46 12.7156 6.206 13.4716 5.378C14.2396 4.55 15.3736 4.136 16.8736 4.136C18.2656 4.136 19.3576 4.55 20.1496 5.378C20.9536 6.206 21.3556 7.46 21.3556 9.14C21.3556 10.844 20.9716 12.11 20.2036 12.938C19.4356 13.766 18.3076 14.18 16.8196 14.18ZM16.8556 13.118C17.6236 13.118 18.1576 12.782 18.4576 12.11C18.7696 11.426 18.9256 10.436 18.9256 9.14C18.9256 7.844 18.7696 6.866 18.4576 6.206C18.1456 5.546 17.6056 5.216 16.8376 5.216C16.0696 5.216 15.5296 5.546 15.2176 6.206C14.9176 6.854 14.7676 7.832 14.7676 9.14C14.7676 10.436 14.9236 11.426 15.2356 12.11C15.5476 12.782 16.0876 13.118 16.8556 13.118ZM26.5501 14.18C25.1581 14.18 24.0601 13.766 23.2561 12.938C22.4641 12.11 22.0681 10.844 22.0681 9.14C22.0681 7.46 22.4461 6.206 23.2021 5.378C23.9701 4.55 25.1041 4.136 26.6041 4.136C27.9961 4.136 29.0881 4.55 29.8801 5.378C30.6841 6.206 31.0861 7.46 31.0861 9.14C31.0861 10.844 30.7021 12.11 29.9341 12.938C29.1661 13.766 28.0381 14.18 26.5501 14.18ZM26.5861 13.118C27.3541 13.118 27.8881 12.782 28.1881 12.11C28.5001 11.426 28.6561 10.436 28.6561 9.14C28.6561 7.844 28.5001 6.866 28.1881 6.206C27.8761 5.546 27.3361 5.216 26.5681 5.216C25.8001 5.216 25.2601 5.546 24.9481 6.206C24.6481 6.854 24.4981 7.832 24.4981 9.14C24.4981 10.436 24.6541 11.426 24.9661 12.11C25.2781 12.782 25.8181 13.118 26.5861 13.118ZM35.1107 18.32C33.7547 18.32 32.7407 18.098 32.0687 17.654C31.3967 17.222 31.0607 16.598 31.0607 15.782C31.0607 15.122 31.2767 14.612 31.7087 14.252C32.1407 13.904 32.7167 13.694 33.4367 13.622C33.1367 13.49 32.8607 13.298 32.6087 13.046C32.3567 12.794 32.2307 12.464 32.2307 12.056C32.2307 11.672 32.3567 11.336 32.6087 11.048C32.8727 10.76 33.2327 10.49 33.6887 10.238C33.1607 10.034 32.7347 9.692 32.4107 9.212C32.0867 8.732 31.9247 8.15 31.9247 7.466C31.9247 6.422 32.2187 5.606 32.8067 5.018C33.4067 4.43 34.3247 4.136 35.5607 4.136C35.9807 4.136 36.3767 4.196 36.7487 4.316C37.1327 4.424 37.4387 4.556 37.6667 4.712C37.9307 4.412 38.2067 4.172 38.4947 3.992C38.7947 3.8 39.1307 3.704 39.5027 3.704C39.9107 3.704 40.2107 3.806 40.4027 4.01C40.6067 4.202 40.7087 4.436 40.7087 4.712C40.7087 4.964 40.6247 5.192 40.4567 5.396C40.2887 5.6 39.9827 5.702 39.5387 5.702C39.5387 5.498 39.4787 5.33 39.3587 5.198C39.2387 5.066 39.0827 5 38.8907 5C38.6387 5 38.4227 5.066 38.2427 5.198C38.4707 5.462 38.6627 5.786 38.8187 6.17C38.9747 6.554 39.0527 6.98 39.0527 7.448C39.0527 8.348 38.7647 9.098 38.1887 9.698C37.6247 10.286 36.7487 10.58 35.5607 10.58C35.4167 10.58 35.2367 10.574 35.0207 10.562C34.8167 10.55 34.6547 10.532 34.5347 10.508C34.3547 10.604 34.1927 10.736 34.0487 10.904C33.9047 11.072 33.8327 11.27 33.8327 11.498C33.8327 11.702 33.9047 11.858 34.0487 11.966C34.2047 12.062 34.4447 12.11 34.7687 12.11H36.8927C38.0447 12.11 38.8787 12.356 39.3947 12.848C39.9227 13.34 40.1867 14.006 40.1867 14.846C40.1867 15.926 39.7727 16.772 38.9447 17.384C38.1167 18.008 36.8387 18.32 35.1107 18.32ZM35.1467 17.312C35.9147 17.312 36.5207 17.234 36.9647 17.078C37.4207 16.922 37.7507 16.7 37.9547 16.412C38.1587 16.124 38.2607 15.782 38.2607 15.386C38.2607 14.942 38.1287 14.636 37.8647 14.468C37.6007 14.312 37.2047 14.234 36.6767 14.234H34.6967C34.4207 14.234 34.1507 14.27 33.8867 14.342C33.6227 14.414 33.4007 14.552 33.2207 14.756C33.0527 14.972 32.9687 15.29 32.9687 15.71C32.9687 16.046 33.0407 16.334 33.1847 16.574C33.3407 16.814 33.5807 16.994 33.9047 17.114C34.2287 17.246 34.6427 17.312 35.1467 17.312ZM35.5067 9.59C36.0227 9.59 36.3767 9.404 36.5687 9.032C36.7607 8.66 36.8567 8.126 36.8567 7.43C36.8567 6.71 36.7547 6.152 36.5507 5.756C36.3587 5.348 36.0047 5.144 35.4887 5.144C34.9847 5.144 34.6307 5.354 34.4267 5.774C34.2227 6.182 34.1207 6.74 34.1207 7.448C34.1207 8.12 34.2227 8.648 34.4267 9.032C34.6427 9.404 35.0027 9.59 35.5067 9.59ZM40.0559 14V13.118H40.2719C40.4879 13.118 40.6979 13.088 40.9019 13.028C41.1059 12.968 41.2739 12.854 41.4059 12.686C41.5499 12.506 41.6219 12.242 41.6219 11.894V2.354C41.6219 2.018 41.5499 1.772 41.4059 1.616C41.2619 1.448 41.0879 1.34 40.8839 1.292C40.6799 1.232 40.4759 1.202 40.2719 1.202H40.0559V0.319999H43.9979V11.894C43.9979 12.242 44.0639 12.506 44.1959 12.686C44.3399 12.854 44.5139 12.968 44.7179 13.028C44.9339 13.088 45.1439 13.118 45.3479 13.118H45.5639V14H40.0559ZM50.1699 14.18C48.7179 14.18 47.6019 13.748 46.8219 12.884C46.0539 12.008 45.6699 10.79 45.6699 9.23C45.6699 7.55 46.0419 6.284 46.7859 5.432C47.5419 4.568 48.6039 4.136 49.9719 4.136C51.2319 4.136 52.2219 4.502 52.9419 5.234C53.6619 5.954 54.0219 7.028 54.0219 8.456V9.356H48.0999C48.1239 10.592 48.3459 11.492 48.7659 12.056C49.1979 12.62 49.8099 12.902 50.6019 12.902C51.2259 12.902 51.7539 12.764 52.1859 12.488C52.6179 12.212 52.9359 11.888 53.1399 11.516C53.2839 11.576 53.3919 11.678 53.4639 11.822C53.5479 11.954 53.5899 12.116 53.5899 12.308C53.5899 12.608 53.4639 12.902 53.2119 13.19C52.9719 13.478 52.5999 13.718 52.0959 13.91C51.5919 14.09 50.9499 14.18 50.1699 14.18ZM51.5919 8.258C51.5919 7.322 51.4659 6.584 51.2139 6.044C50.9739 5.504 50.5659 5.234 49.9899 5.234C49.4259 5.234 48.9819 5.492 48.6579 6.008C48.3459 6.524 48.1719 7.274 48.1359 8.258H51.5919ZM55.3026 14V13.118H55.5546C55.8906 13.118 56.1606 13.034 56.3646 12.866C56.5686 12.686 56.7726 12.32 56.9766 11.768L60.9006 1.148H63.0246L66.8766 11.93C67.0446 12.386 67.2306 12.698 67.4346 12.866C67.6506 13.034 67.9146 13.118 68.2266 13.118H68.5146V14H62.8986V13.118H63.5106C63.7506 13.118 63.9546 13.058 64.1226 12.938C64.3026 12.818 64.3926 12.626 64.3926 12.362C64.3926 12.23 64.3746 12.104 64.3386 11.984C64.3026 11.852 64.2666 11.732 64.2306 11.624L63.5646 9.752H59.0826L58.5066 11.408C58.4586 11.552 58.4106 11.714 58.3626 11.894C58.3266 12.074 58.3086 12.224 58.3086 12.344C58.3086 12.596 58.3926 12.788 58.5606 12.92C58.7406 13.052 58.9686 13.118 59.2446 13.118H59.8746V14H55.3026ZM59.4426 8.708H63.2226L62.2146 5.702C62.0706 5.246 61.9206 4.772 61.7646 4.28C61.6206 3.788 61.5006 3.332 61.4046 2.912C61.2966 3.308 61.1706 3.734 61.0266 4.19C60.8826 4.646 60.7266 5.108 60.5586 5.576L59.4426 8.708ZM67.8541 14V13.118H67.9261C68.3341 13.118 68.6701 13.046 68.9341 12.902C69.2101 12.746 69.3481 12.398 69.3481 11.858V6.422C69.3481 5.918 69.2221 5.594 68.9701 5.45C68.7181 5.306 68.3941 5.234 67.9981 5.234H67.9441V4.352H71.4361L71.6521 5.684H71.7421C71.9941 5.228 72.2581 4.892 72.5341 4.676C72.8221 4.46 73.1281 4.316 73.4521 4.244C73.7881 4.172 74.1481 4.136 74.5321 4.136C75.4561 4.136 76.1821 4.412 76.7101 4.964C77.2501 5.516 77.5201 6.404 77.5201 7.628V11.822C77.5201 12.386 77.6221 12.746 77.8261 12.902C78.0421 13.046 78.3541 13.118 78.7621 13.118H78.8341V14H75.1261V7.988C75.1261 7.208 75.0061 6.608 74.7661 6.188C74.5261 5.756 74.1061 5.54 73.5061 5.54C73.0621 5.54 72.7081 5.672 72.4441 5.936C72.1921 6.2 72.0121 6.548 71.9041 6.98C71.7961 7.412 71.7421 7.874 71.7421 8.366V11.93C71.7421 12.446 71.8621 12.776 72.1021 12.92C72.3541 13.052 72.6781 13.118 73.0741 13.118H73.1461V14H67.8541ZM81.8969 14.18C81.1049 14.18 80.4389 13.946 79.8989 13.478C79.3589 12.998 79.0889 12.26 79.0889 11.264C79.0889 10.292 79.4249 9.578 80.0969 9.122C80.7689 8.654 81.7829 8.396 83.1389 8.348L84.6149 8.294V7.268C84.6149 6.86 84.5849 6.5 84.5249 6.188C84.4769 5.864 84.3569 5.612 84.1649 5.432C83.9849 5.252 83.7029 5.162 83.3189 5.162C82.9709 5.162 82.6949 5.246 82.4909 5.414C82.2869 5.582 82.1489 5.816 82.0769 6.116C82.0049 6.404 81.9689 6.74 81.9689 7.124C81.2609 7.124 80.7269 7.034 80.3669 6.854C80.0189 6.674 79.8449 6.368 79.8449 5.936C79.8449 5.504 80.0009 5.156 80.3129 4.892C80.6369 4.628 81.0689 4.436 81.6089 4.316C82.1489 4.196 82.7429 4.136 83.3909 4.136C84.6029 4.136 85.5089 4.37 86.1089 4.838C86.7089 5.294 87.0089 6.086 87.0089 7.214V11.822C87.0089 12.326 87.0869 12.668 87.2429 12.848C87.4109 13.028 87.6989 13.118 88.1069 13.118H88.1609V14H85.1189L84.7769 12.65H84.6329C84.3689 12.986 84.1169 13.268 83.8769 13.496C83.6369 13.712 83.3609 13.88 83.0489 14C82.7489 14.12 82.3649 14.18 81.8969 14.18ZM82.6889 12.938C83.2769 12.938 83.7449 12.722 84.0929 12.29C84.4409 11.858 84.6149 11.282 84.6149 10.562V9.176L83.6969 9.23C82.8809 9.278 82.3109 9.476 81.9869 9.824C81.6749 10.16 81.5189 10.664 81.5189 11.336C81.5189 12.404 81.9089 12.938 82.6889 12.938ZM88.0153 14V13.118H88.2313C88.4473 13.118 88.6573 13.088 88.8613 13.028C89.0653 12.968 89.2333 12.854 89.3653 12.686C89.5093 12.506 89.5813 12.242 89.5813 11.894V2.354C89.5813 2.018 89.5093 1.772 89.3653 1.616C89.2213 1.448 89.0473 1.34 88.8433 1.292C88.6393 1.232 88.4353 1.202 88.2313 1.202H88.0153V0.319999H91.9573V11.894C91.9573 12.242 92.0233 12.506 92.1553 12.686C92.2993 12.854 92.4733 12.968 92.6773 13.028C92.8933 13.088 93.1033 13.118 93.3073 13.118H93.5233V14H88.0153ZM93.2874 17.348C94.1154 17.348 94.7874 17.204 95.3034 16.916C95.8194 16.64 96.2274 16.25 96.5274 15.746C96.8394 15.254 97.0914 14.684 97.2834 14.036L94.0074 6.134C93.8754 5.798 93.7134 5.582 93.5214 5.486C93.3414 5.378 93.1074 5.318 92.8194 5.306H92.7474V4.352H97.6074V5.234H97.5534C97.2174 5.234 96.9534 5.294 96.7614 5.414C96.5694 5.522 96.4734 5.708 96.4734 5.972C96.4734 6.068 96.4914 6.182 96.5274 6.314C96.5634 6.434 96.6054 6.548 96.6534 6.656L97.9134 9.932C98.0334 10.22 98.1354 10.496 98.2194 10.76C98.3034 11.024 98.3694 11.264 98.4174 11.48C98.4774 11.696 98.5194 11.894 98.5434 12.074C98.5794 11.786 98.6514 11.48 98.7594 11.156C98.8794 10.82 98.9754 10.562 99.0474 10.382L100.235 6.854C100.283 6.734 100.325 6.59 100.361 6.422C100.397 6.254 100.415 6.116 100.415 6.008C100.415 5.732 100.307 5.54 100.091 5.432C99.8874 5.312 99.5874 5.246 99.1914 5.234H99.1194V4.352H103.061V5.234H103.007C102.659 5.246 102.389 5.348 102.197 5.54C102.005 5.72 101.819 6.068 101.639 6.584L98.9034 14.018C98.5914 14.894 98.2914 15.608 98.0034 16.16C97.7274 16.724 97.4034 17.162 97.0314 17.474C96.6714 17.786 96.2094 18.002 95.6454 18.122C95.0934 18.254 94.3914 18.32 93.5394 18.32H93.2874V17.348ZM106.341 14.18C105.501 14.18 104.853 13.97 104.397 13.55C103.941 13.13 103.713 12.398 103.713 11.354V5.504H102.345V4.658C102.681 4.658 102.993 4.592 103.281 4.46C103.569 4.328 103.809 4.16 104.001 3.956C104.181 3.764 104.343 3.518 104.487 3.218C104.631 2.918 104.745 2.552 104.829 2.12H106.089V4.352H108.411V5.504H106.089V11.246C106.089 11.81 106.191 12.224 106.395 12.488C106.611 12.752 106.929 12.884 107.349 12.884C107.577 12.884 107.787 12.872 107.979 12.848C108.183 12.824 108.381 12.788 108.573 12.74V13.784C108.393 13.868 108.105 13.952 107.709 14.036C107.313 14.132 106.857 14.18 106.341 14.18ZM108.208 14V13.118H108.424C108.64 13.118 108.85 13.094 109.054 13.046C109.258 12.986 109.426 12.872 109.558 12.704C109.702 12.524 109.774 12.266 109.774 11.93V6.386C109.774 6.05 109.702 5.804 109.558 5.648C109.414 5.48 109.24 5.372 109.036 5.324C108.832 5.264 108.628 5.234 108.424 5.234H108.262V4.352H112.168V11.894C112.168 12.242 112.234 12.506 112.366 12.686C112.498 12.854 112.672 12.968 112.888 13.028C113.104 13.088 113.308 13.118 113.5 13.118H113.734V14H108.208ZM110.89 2.678C110.506 2.678 110.182 2.582 109.918 2.39C109.654 2.186 109.522 1.868 109.522 1.436C109.522 0.992 109.654 0.674 109.918 0.481999C110.182 0.289999 110.506 0.194 110.89 0.194C111.262 0.194 111.58 0.289999 111.844 0.481999C112.12 0.674 112.258 0.992 112.258 1.436C112.258 1.868 112.12 2.186 111.844 2.39C111.58 2.582 111.262 2.678 110.89 2.678ZM118.159 14.18C117.307 14.18 116.551 14.018 115.891 13.694C115.243 13.37 114.733 12.848 114.361 12.128C114.001 11.396 113.821 10.424 113.821 9.212C113.821 7.928 114.007 6.92 114.379 6.188C114.763 5.444 115.273 4.916 115.909 4.604C116.557 4.292 117.283 4.136 118.087 4.136C118.783 4.136 119.383 4.214 119.887 4.37C120.403 4.526 120.799 4.742 121.075 5.018C121.363 5.294 121.507 5.624 121.507 6.008C121.507 6.272 121.447 6.512 121.327 6.728C121.207 6.932 120.991 7.1 120.679 7.232C120.379 7.352 119.965 7.412 119.437 7.412C119.437 7.004 119.395 6.632 119.311 6.296C119.239 5.96 119.107 5.69 118.915 5.486C118.735 5.27 118.477 5.162 118.141 5.162C117.757 5.162 117.421 5.282 117.133 5.522C116.845 5.762 116.623 6.176 116.467 6.764C116.323 7.34 116.251 8.15 116.251 9.194C116.251 10.43 116.431 11.354 116.791 11.966C117.163 12.578 117.757 12.884 118.573 12.884C119.185 12.884 119.707 12.752 120.139 12.488C120.583 12.224 120.907 11.894 121.111 11.498C121.243 11.582 121.339 11.696 121.399 11.84C121.471 11.972 121.507 12.122 121.507 12.29C121.507 12.578 121.387 12.872 121.147 13.172C120.907 13.46 120.541 13.7 120.049 13.892C119.557 14.084 118.927 14.18 118.159 14.18ZM125.137 14.18C123.961 14.18 123.097 13.994 122.545 13.622C122.005 13.238 121.735 12.746 121.735 12.146C121.735 11.774 121.819 11.492 121.987 11.3C122.167 11.108 122.371 10.982 122.599 10.922C122.839 10.85 123.049 10.814 123.229 10.814C123.229 11.522 123.391 12.098 123.715 12.542C124.051 12.974 124.537 13.19 125.173 13.19C125.797 13.19 126.259 13.058 126.559 12.794C126.871 12.53 127.027 12.206 127.027 11.822C127.027 11.546 126.961 11.312 126.829 11.12C126.697 10.916 126.469 10.73 126.145 10.562C125.821 10.382 125.377 10.184 124.813 9.968C124.177 9.728 123.643 9.476 123.211 9.212C122.779 8.936 122.449 8.618 122.221 8.258C122.005 7.886 121.897 7.436 121.897 6.908C121.897 5.996 122.233 5.312 122.905 4.856C123.589 4.388 124.489 4.154 125.605 4.154C126.301 4.154 126.865 4.232 127.297 4.388C127.741 4.544 128.065 4.754 128.269 5.018C128.473 5.27 128.575 5.54 128.575 5.828C128.575 6.2 128.443 6.494 128.179 6.71C127.927 6.914 127.507 7.016 126.919 7.016C126.919 6.416 126.787 5.948 126.523 5.612C126.271 5.276 125.881 5.108 125.353 5.108C124.897 5.108 124.525 5.216 124.237 5.432C123.949 5.648 123.805 5.948 123.805 6.332C123.805 6.608 123.877 6.842 124.021 7.034C124.165 7.226 124.411 7.412 124.759 7.592C125.107 7.772 125.587 7.976 126.199 8.204C126.775 8.408 127.261 8.642 127.657 8.906C128.065 9.158 128.377 9.464 128.593 9.824C128.809 10.184 128.917 10.616 128.917 11.12C128.917 12.104 128.581 12.86 127.909 13.388C127.249 13.916 126.325 14.18 125.137 14.18Z" fill="white"/>
</svg>
