<svg width="125" height="15" viewBox="0 0 125 15" fill="none" xmlns="http://www.w3.org/2000/svg">
<path d="M13.5176 1.09766L11.7158 5.50098C11.0537 5.18457 10.4209 4.94434 9.81738 4.78027C9.21973 4.61035 8.69238 4.4873 8.23535 4.41113C7.69629 4.32324 7.19531 4.2793 6.73242 4.2793C6.04688 4.29102 5.4668 4.34375 4.99219 4.4375C4.51758 4.52539 4.13672 4.64844 3.84961 4.80664C3.56836 4.95898 3.37207 5.13477 3.26074 5.33398C3.15527 5.5332 3.12891 5.74707 3.18164 5.97559C3.24023 6.2334 3.37793 6.43848 3.59473 6.59082C3.81152 6.7373 4.10156 6.84863 4.46484 6.9248C4.82812 6.99512 5.25879 7.04199 5.75684 7.06543C6.26074 7.08887 6.82617 7.10352 7.45312 7.10938C7.78125 7.11523 8.14453 7.12695 8.54297 7.14453C8.94727 7.16211 9.35449 7.20898 9.76465 7.28516C10.1807 7.35547 10.582 7.46387 10.9688 7.61035C11.3555 7.75684 11.6982 7.96191 11.9971 8.22559C12.3018 8.48926 12.5449 8.82031 12.7266 9.21875C12.9082 9.61719 12.999 10.1064 12.999 10.6865C12.999 11.2139 12.9229 11.6709 12.7705 12.0576C12.6182 12.4443 12.4131 12.7754 12.1553 13.0508C11.8975 13.3203 11.5928 13.543 11.2412 13.7188C10.8955 13.8887 10.5264 14.0234 10.1338 14.123C9.74121 14.2227 9.33691 14.29 8.9209 14.3252C8.50488 14.3604 8.10059 14.3779 7.70801 14.3779C7.20996 14.3779 6.73242 14.3545 6.27539 14.3076C5.82422 14.2666 5.38184 14.2051 4.94824 14.123C4.51465 14.041 4.08105 13.9443 3.64746 13.833C3.21973 13.7158 2.7832 13.5869 2.33789 13.4463L1.81934 14.9932L0.580078 14.6328L1.71387 10.291C2.24121 10.5195 2.7627 10.7246 3.27832 10.9062C3.7998 11.0879 4.32129 11.2432 4.84277 11.3721C5.37012 11.4951 5.90039 11.5889 6.43359 11.6533C6.9668 11.7178 7.51172 11.75 8.06836 11.75C8.61328 11.75 9.0791 11.7178 9.46582 11.6533C9.85254 11.5889 10.166 11.4922 10.4062 11.3633C10.6523 11.2344 10.8311 11.0732 10.9424 10.8799C11.0537 10.6865 11.1094 10.4609 11.1094 10.2031C11.1094 9.88086 11.0273 9.62598 10.8633 9.43848C10.6992 9.25098 10.4502 9.10742 10.1162 9.00781C9.78809 8.9082 9.375 8.84082 8.87695 8.80566C8.38477 8.77051 7.80762 8.74414 7.14551 8.72656C6.68262 8.71484 6.19629 8.69727 5.68652 8.67383C5.17676 8.65039 4.67578 8.60059 4.18359 8.52441C3.69141 8.44824 3.22266 8.33691 2.77734 8.19043C2.33203 8.04395 1.93945 7.8418 1.59961 7.58398C1.26562 7.32617 0.999023 7.00391 0.799805 6.61719C0.600586 6.23047 0.500977 5.75879 0.500977 5.20215C0.500977 4.7041 0.580078 4.25586 0.738281 3.85742C0.902344 3.45312 1.13086 3.09863 1.42383 2.79395C1.7168 2.4834 2.0625 2.21973 2.46094 2.00293C2.86523 1.78027 3.30762 1.60156 3.78809 1.4668C4.27441 1.32617 4.78711 1.22656 5.32617 1.16797C5.87109 1.10937 6.43066 1.08594 7.00488 1.09766C7.59082 1.12695 8.1709 1.18555 8.74512 1.27344C8.98535 1.30859 9.2373 1.35547 9.50098 1.41406C9.76465 1.4668 10.0254 1.53418 10.2832 1.61621C10.541 1.69238 10.79 1.7832 11.0303 1.88867C11.2705 1.98828 11.4932 2.10254 11.6982 2.23145L12.0762 0.517578L13.5176 1.09766ZM25.1392 8.83203L21.0698 8.50684L20.9116 10.6338H27.855L28.1978 8.91992H29.5689L29.2612 13.499L16.4995 13.9824V10.6338H19.1099L18.732 4.70996L16.4995 4.85938V1.5459L29.5689 1.81836V6.88965L28.1978 7.16211L27.9253 4.12109L21.3775 4.55176L21.1753 7.10938L25.1392 6.87207V8.83203ZM40.1006 13.7627L33.1924 14.3428L33.4297 11.5479L35.8555 11.7148L35.6797 4.62207L33.1924 4.89453L33.5 1.25586H39.0811L43.5108 9.91309L46.4551 1.25586H52.0186V4.04199H49.461L49.6807 11.6621L52.3789 11.7324L52.5284 13.7627L45.3829 14.3428V11.5479L47.9493 11.627L46.9649 4.98242L43.6866 12.9541H42.3506L37.9649 4.87695L37.4551 11.8027L39.9424 11.9697L40.1006 13.7627ZM70.4254 9.44727L69.7662 13.7627H65.9429L62.814 8.72656C62.3629 8.76172 61.8765 8.7793 61.355 8.7793C61.1558 8.7793 60.9537 8.7793 60.7486 8.7793C60.5435 8.7793 60.3326 8.77344 60.1158 8.76172L59.9664 11.8027L62.7613 11.9697L62.9195 13.7627L55.7564 14.3428V11.5479L58.2613 11.6973L57.7779 4.22656L55.9234 4.60449L55.563 1.94141C55.9908 1.8125 56.4214 1.70117 56.855 1.60742C57.2945 1.50781 57.7252 1.42285 58.147 1.35254C58.5689 1.28223 58.9761 1.22363 59.3687 1.17676C59.7613 1.12402 60.1304 1.08008 60.4761 1.04492C61.2847 0.96875 62.064 0.924805 62.814 0.913086C63.7632 0.913086 64.648 0.992188 65.4683 1.15039C66.2945 1.30859 67.0064 1.54297 67.6041 1.85352C68.2076 2.16406 68.6734 2.55078 69.0015 3.01367C69.3355 3.4707 69.482 4.00098 69.441 4.60449C69.4117 5.02637 69.2857 5.43945 69.063 5.84375C68.8462 6.24805 68.5269 6.62305 68.105 6.96875C67.689 7.31445 67.1734 7.62207 66.5582 7.8916C65.9429 8.16113 65.2222 8.37207 64.3961 8.52441L67.6041 11.6094L69.0279 11.249L69.0455 9.44727H70.4254ZM60.9244 7.61035C61.2232 7.61035 61.5718 7.60449 61.9703 7.59277C62.3687 7.5752 62.7759 7.53711 63.192 7.47852C63.608 7.41406 64.0123 7.32324 64.4048 7.20605C64.7974 7.08887 65.1373 6.92773 65.4244 6.72266C65.7173 6.51758 65.9371 6.26562 66.0836 5.9668C66.2359 5.66211 66.274 5.29297 66.1978 4.85938C66.1685 4.69531 66.0894 4.52832 65.9605 4.3584C65.8316 4.18262 65.6441 4.02441 65.398 3.88379C65.1519 3.74316 64.8443 3.62891 64.4752 3.54102C64.1119 3.44727 63.6783 3.40039 63.1744 3.40039C62.9283 3.40039 62.688 3.40625 62.4537 3.41797C62.2252 3.42969 61.9966 3.44727 61.7681 3.4707C61.5455 3.48828 61.3199 3.51465 61.0914 3.5498C60.8629 3.58496 60.6226 3.62305 60.3707 3.66406L60.1685 7.59277C60.2974 7.60449 60.4234 7.61035 60.5464 7.61035C60.6695 7.61035 60.7955 7.61035 60.9244 7.61035ZM86.2569 9.55273C86.2042 9.875 86.1192 10.2207 86.002 10.5898C85.8907 10.9531 85.7354 11.3164 85.5362 11.6797C85.337 12.043 85.0938 12.3916 84.8067 12.7256C84.5196 13.0537 84.1768 13.3438 83.7784 13.5957C83.38 13.8477 82.9229 14.0498 82.4073 14.2021C81.8917 14.3545 81.3087 14.4307 80.6583 14.4307C79.7501 14.4307 78.9356 14.2959 78.2149 14.0264C77.5001 13.7627 76.8936 13.3994 76.3956 12.9365C75.8975 12.4678 75.5167 11.9199 75.253 11.293C74.9893 10.666 74.8575 9.98926 74.8575 9.2627C74.8575 9.09863 74.8692 8.85254 74.8927 8.52441C74.9161 8.19043 74.9512 7.79199 74.9981 7.3291C75.045 6.86621 75.1007 6.34766 75.1651 5.77344C75.2296 5.19336 75.3028 4.5752 75.3848 3.91895L72.8096 3.98926V1.2207L80.421 1.52832L80.3682 3.76074L78.0303 3.83105C77.8487 4.72754 77.7081 5.47754 77.6085 6.08105C77.5147 6.67871 77.4444 7.16211 77.3975 7.53125C77.3448 7.96484 77.3155 8.31055 77.3096 8.56836C77.3096 9.14844 77.377 9.63184 77.5118 10.0186C77.6466 10.3994 77.8516 10.7041 78.127 10.9326C78.4083 11.1553 78.7569 11.3135 79.1729 11.4072C79.5948 11.501 80.0899 11.5479 80.6583 11.5479C81.0333 11.5479 81.4053 11.5332 81.7745 11.5039C82.1436 11.4746 82.4923 11.4189 82.8204 11.3369C83.1544 11.2549 83.4561 11.1406 83.7257 10.9941C84.0011 10.8418 84.2325 10.6455 84.42 10.4053C84.6134 10.165 84.754 9.875 84.8419 9.53516C84.9356 9.18945 84.962 8.78223 84.921 8.31348C84.921 7.99121 84.9093 7.61035 84.8858 7.1709C84.8682 6.7959 84.836 6.33887 84.7891 5.7998C84.7481 5.26074 84.6895 4.64551 84.6134 3.9541L81.8448 4.19141L81.7042 1.41406L89.3155 1.34375L89.3858 3.55859L86.3096 3.81348C86.3448 4.38184 86.3682 4.90332 86.38 5.37793C86.3917 5.85254 86.3975 6.2832 86.3975 6.66992C86.3975 7.17969 86.3887 7.61621 86.3712 7.97949C86.3595 8.33691 86.3448 8.63281 86.3272 8.86719C86.3038 9.14258 86.2803 9.37109 86.2569 9.55273ZM104.699 1.09766L102.897 5.50098C102.235 5.18457 101.602 4.94434 100.999 4.78027C100.401 4.61035 99.8736 4.4873 99.4166 4.41113C98.8775 4.32324 98.3766 4.2793 97.9137 4.2793C97.2281 4.29102 96.648 4.34375 96.1734 4.4375C95.6988 4.52539 95.318 4.64844 95.0309 4.80664C94.7496 4.95898 94.5533 5.13477 94.442 5.33398C94.3365 5.5332 94.3102 5.74707 94.3629 5.97559C94.4215 6.2334 94.5592 6.43848 94.776 6.59082C94.9928 6.7373 95.2828 6.84863 95.6461 6.9248C96.0094 6.99512 96.44 7.04199 96.9381 7.06543C97.442 7.08887 98.0074 7.10352 98.6344 7.10938C98.9625 7.11523 99.3258 7.12695 99.7242 7.14453C100.129 7.16211 100.536 7.20898 100.946 7.28516C101.362 7.35547 101.763 7.46387 102.15 7.61035C102.537 7.75684 102.879 7.96191 103.178 8.22559C103.483 8.48926 103.726 8.82031 103.908 9.21875C104.089 9.61719 104.18 10.1064 104.18 10.6865C104.18 11.2139 104.104 11.6709 103.952 12.0576C103.799 12.4443 103.594 12.7754 103.337 13.0508C103.079 13.3203 102.774 13.543 102.422 13.7188C102.077 13.8887 101.708 14.0234 101.315 14.123C100.922 14.2227 100.518 14.29 100.102 14.3252C99.6861 14.3604 99.2818 14.3779 98.8893 14.3779C98.3912 14.3779 97.9137 14.3545 97.4566 14.3076C97.0055 14.2666 96.5631 14.2051 96.1295 14.123C95.6959 14.041 95.2623 13.9443 94.8287 13.833C94.401 13.7158 93.9645 13.5869 93.5191 13.4463L93.0006 14.9932L91.7613 14.6328L92.8951 10.291C93.4225 10.5195 93.9439 10.7246 94.4596 10.9062C94.9811 11.0879 95.5025 11.2432 96.024 11.3721C96.5514 11.4951 97.0816 11.5889 97.6148 11.6533C98.148 11.7178 98.693 11.75 99.2496 11.75C99.7945 11.75 100.26 11.7178 100.647 11.6533C101.034 11.5889 101.347 11.4922 101.588 11.3633C101.834 11.2344 102.012 11.0732 102.124 10.8799C102.235 10.6865 102.291 10.4609 102.291 10.2031C102.291 9.88086 102.209 9.62598 102.045 9.43848C101.88 9.25098 101.631 9.10742 101.297 9.00781C100.969 8.9082 100.556 8.84082 100.058 8.80566C99.566 8.77051 98.9889 8.74414 98.3268 8.72656C97.8639 8.71484 97.3775 8.69727 96.8678 8.67383C96.358 8.65039 95.857 8.60059 95.3648 8.52441C94.8727 8.44824 94.4039 8.33691 93.9586 8.19043C93.5133 8.04395 93.1207 7.8418 92.7809 7.58398C92.4469 7.32617 92.1803 7.00391 91.9811 6.61719C91.7818 6.23047 91.6822 5.75879 91.6822 5.20215C91.6822 4.7041 91.7613 4.25586 91.9195 3.85742C92.0836 3.45312 92.3121 3.09863 92.6051 2.79395C92.898 2.4834 93.2438 2.21973 93.6422 2.00293C94.0465 1.78027 94.4889 1.60156 94.9693 1.4668C95.4557 1.32617 95.9684 1.22656 96.5074 1.16797C97.0523 1.10937 97.6119 1.08594 98.1861 1.09766C98.7721 1.12695 99.3521 1.18555 99.9264 1.27344C100.167 1.30859 100.419 1.35547 100.682 1.41406C100.946 1.4668 101.207 1.53418 101.464 1.61621C101.722 1.69238 101.971 1.7832 102.212 1.88867C102.452 1.98828 102.674 2.10254 102.879 2.23145L103.257 0.517578L104.699 1.09766ZM124.187 14.2373L116.628 14L116.575 11.7676L119.168 11.6621L119.414 8.38379L112.418 8.79688L112.181 11.3896L115.275 11.4072L115.151 14.1758L107.61 13.5693L107.663 11.3369L110.484 11.3721L110.203 3.84863L107.61 3.91895V1.15039L115.222 1.45801L115.169 3.68164L112.901 3.76074L112.594 6.87207H119.546L119.792 3.86621L116.646 4.12109L116.496 1.32617L124.116 1.25586L124.187 3.48828L121.488 3.72559V11.5742L124.187 11.46V14.2373Z" fill="white"/>
</svg>
