<svg width="66" height="16" viewBox="0 0 66 16" fill="none" xmlns="http://www.w3.org/2000/svg">
<path d="M4.56 15V3.64H0.08V0.999999H12.28V3.64H7.8V15H4.56ZM15.1689 15V4.24H18.1489V7.28L17.7289 6.4C18.0489 5.64 18.5622 5.06667 19.2689 4.68C19.9756 4.28 20.8356 4.08 21.8489 4.08V6.96C21.7156 6.94667 21.5956 6.94 21.4889 6.94C21.3822 6.92667 21.2689 6.92 21.1489 6.92C20.2956 6.92 19.6022 7.16667 19.0689 7.66C18.5489 8.14 18.2889 8.89333 18.2889 9.92V15H15.1689ZM30.5659 15.16C29.3393 15.16 28.2593 14.92 27.3259 14.44C26.4059 13.96 25.6926 13.3067 25.1859 12.48C24.6793 11.64 24.4259 10.6867 24.4259 9.62C24.4259 8.54 24.6726 7.58667 25.1659 6.76C25.6726 5.92 26.3593 5.26667 27.2259 4.8C28.0926 4.32 29.0726 4.08 30.1659 4.08C31.2193 4.08 32.1659 4.30667 33.0059 4.76C33.8593 5.2 34.5326 5.84 35.0259 6.68C35.5193 7.50667 35.7659 8.5 35.7659 9.66C35.7659 9.78 35.7593 9.92 35.7459 10.08C35.7326 10.2267 35.7193 10.3667 35.7059 10.5H26.9659V8.68H34.0659L32.8659 9.22C32.8659 8.66 32.7526 8.17333 32.5259 7.76C32.2993 7.34667 31.9859 7.02667 31.5859 6.8C31.1859 6.56 30.7193 6.44 30.1859 6.44C29.6526 6.44 29.1793 6.56 28.7659 6.8C28.3659 7.02667 28.0526 7.35333 27.8259 7.78C27.5993 8.19333 27.4859 8.68667 27.4859 9.26V9.74C27.4859 10.3267 27.6126 10.8467 27.8659 11.3C28.1326 11.74 28.4993 12.08 28.9659 12.32C29.4459 12.5467 30.0059 12.66 30.6459 12.66C31.2193 12.66 31.7193 12.5733 32.1459 12.4C32.5859 12.2267 32.9859 11.9667 33.3459 11.62L35.0059 13.42C34.5126 13.98 33.8926 14.4133 33.1459 14.72C32.3993 15.0133 31.5393 15.16 30.5659 15.16ZM39.4431 15V0.159999H42.5631V15H39.4431ZM47.0588 15V0.159999H50.1788V15H47.0588ZM59.7944 15.16C58.6477 15.16 57.6277 14.92 56.7344 14.44C55.8544 13.96 55.1544 13.3067 54.6344 12.48C54.1277 11.64 53.8744 10.6867 53.8744 9.62C53.8744 8.54 54.1277 7.58667 54.6344 6.76C55.1544 5.92 55.8544 5.26667 56.7344 4.8C57.6277 4.32 58.6477 4.08 59.7944 4.08C60.9277 4.08 61.941 4.32 62.8344 4.8C63.7277 5.26667 64.4277 5.91333 64.9344 6.74C65.441 7.56667 65.6944 8.52667 65.6944 9.62C65.6944 10.6867 65.441 11.64 64.9344 12.48C64.4277 13.3067 63.7277 13.96 62.8344 14.44C61.941 14.92 60.9277 15.16 59.7944 15.16ZM59.7944 12.6C60.3144 12.6 60.781 12.48 61.1944 12.24C61.6077 12 61.9344 11.66 62.1744 11.22C62.4144 10.7667 62.5344 10.2333 62.5344 9.62C62.5344 8.99333 62.4144 8.46 62.1744 8.02C61.9344 7.58 61.6077 7.24 61.1944 7C60.781 6.76 60.3144 6.64 59.7944 6.64C59.2744 6.64 58.8077 6.76 58.3944 7C57.981 7.24 57.6477 7.58 57.3944 8.02C57.1544 8.46 57.0344 8.99333 57.0344 9.62C57.0344 10.2333 57.1544 10.7667 57.3944 11.22C57.6477 11.66 57.981 12 58.3944 12.24C58.8077 12.48 59.2744 12.6 59.7944 12.6Z" fill="white"/>
</svg>
