<svg width="22" height="23" viewBox="0 0 22 23" fill="none" xmlns="http://www.w3.org/2000/svg">
<path d="M2.75 0.880096H19.25C19.9793 0.880096 20.6788 1.16913 21.1945 1.68363C21.7103 2.19812 22 2.89592 22 3.62352V20.084C22 20.8116 21.7103 21.5094 21.1945 22.0239C20.6788 22.5384 19.9793 22.8275 19.25 22.8275H2.75C2.02065 22.8275 1.32118 22.5384 0.805457 22.0239C0.289732 21.5094 0 20.8116 0 20.084V3.62352C0 2.89592 0.289732 2.19812 0.805457 1.68363C1.32118 1.16913 2.02065 0.880096 2.75 0.880096ZM12.43 5.05009V12.0732C12.43 12.7999 13.0216 13.3901 13.75 13.3901H17.82C18.1701 13.3901 18.5058 13.2514 18.7534 13.0044C19.0009 12.7574 19.14 12.4225 19.14 12.0732V5.05009C19.14 4.70085 19.0009 4.3659 18.7534 4.11895C18.5058 3.87199 18.1701 3.73325 17.82 3.73325H13.75C13.3999 3.73325 13.0642 3.87199 12.8166 4.11895C12.5691 4.3659 12.43 4.70085 12.43 5.05009ZM2.86 5.05009V17.5601C2.86 18.2868 3.45156 18.8769 4.18 18.8769H8.25C8.60009 18.8769 8.93583 18.7382 9.18338 18.4912C9.43093 18.2443 9.57 17.9093 9.57 17.5601V5.05009C9.57 4.70085 9.43093 4.3659 9.18338 4.11895C8.93583 3.87199 8.60009 3.73325 8.25 3.73325H4.18C3.82991 3.73325 3.49417 3.87199 3.24662 4.11895C2.99907 4.3659 2.86 4.70085 2.86 5.05009Z" fill="white"/>
</svg>
