<svg width="22" height="25" viewBox="0 0 22 25" fill="none" xmlns="http://www.w3.org/2000/svg">
<path d="M22 3.87098V21.8264C22.004 22.6155 21.6899 23.3738 21.1267 23.9347C20.5635 24.4955 19.7974 24.813 18.9967 24.8172C18.8723 24.8181 18.7479 24.8114 18.6242 24.7972C17.877 24.688 17.196 24.3133 16.7094 23.7437C16.2229 23.1742 15.9643 22.449 15.9824 21.7047V3.99269C15.9645 3.24763 16.2237 2.52186 16.7113 1.9522C17.1989 1.38254 17.8811 1.00836 18.6293 0.900187C19.0538 0.851327 19.4839 0.891832 19.8914 1.01902C20.2988 1.14621 20.6742 1.35719 20.9927 1.63801C21.3112 1.91883 21.5656 2.26309 21.7391 2.64802C21.9125 3.03295 22.0021 3.4498 22 3.87098ZM3.0645 18.8916C2.66473 18.8843 2.26751 18.9557 1.89605 19.1015C1.52458 19.2472 1.18631 19.4645 0.901008 19.7406C0.615704 20.0166 0.389081 20.346 0.234379 20.7093C0.079678 21.0727 0 21.4628 0 21.8569C0 22.2509 0.079678 22.641 0.234379 23.0044C0.389081 23.3677 0.615704 23.6971 0.901008 23.9731C1.18631 24.2492 1.52458 24.4665 1.89605 24.6123C2.26751 24.758 2.66473 24.8294 3.0645 24.8222C3.85292 24.8079 4.60418 24.4892 5.15663 23.9347C5.70909 23.3801 6.01862 22.634 6.01862 21.8569C6.01862 21.0797 5.70909 20.3336 5.15663 19.779C4.60418 19.2245 3.85292 18.9058 3.0645 18.8916ZM11.0326 9.90335H10.982C10.1787 9.94667 9.42399 10.2963 8.87764 10.8784C8.33128 11.4604 8.03615 12.2291 8.05471 13.0218V20.9875C8.05471 23.1492 9.02036 24.461 10.4334 24.7414C10.8719 24.829 11.3246 24.8194 11.7589 24.7132C12.1931 24.6069 12.5979 24.4068 12.9438 24.1272C13.2898 23.8476 13.5683 23.4957 13.7591 23.0969C13.9499 22.698 14.0483 22.2624 14.047 21.8214V12.8841C14.0477 12.4933 13.9702 12.1062 13.8191 11.745C13.668 11.3837 13.4461 11.0553 13.1662 10.7785C12.8863 10.5017 12.5538 10.2819 12.1877 10.1318C11.8217 9.98162 11.4292 9.90401 11.0326 9.90335Z" fill="white"/>
</svg>
