<svg width="35" height="22" viewBox="0 0 35 22" fill="none" xmlns="http://www.w3.org/2000/svg">
<path d="M30.1846 11.1065C30.1846 11.7526 29.855 11.8574 29.0325 11.8574C28.1633 11.8574 28.0029 11.7119 27.9096 11.0512C27.7375 9.37491 26.6029 7.95177 24.6998 7.79171C24.0902 7.74223 23.9444 7.51523 23.9444 6.76437C23.9444 6.0659 24.0523 5.73413 24.5948 5.73413C27.8979 5.74868 30.1846 8.39996 30.1846 11.1036V11.1065ZM34.9971 11.1065C34.9971 6.07754 31.5875 0.760437 23.7096 0.760437H8.05C7.73208 0.760437 7.53375 0.920503 7.53375 1.21153C7.53375 1.37014 7.65333 1.51566 7.76125 1.58987C8.32708 2.04097 9.17583 2.54154 10.2842 3.0974C11.3677 3.63872 12.2135 3.99377 13.0594 4.33719C13.4181 4.4827 13.5494 4.63986 13.5494 4.83776C13.5494 5.11424 13.351 5.28594 12.966 5.28594H0.5425C0.172083 5.28594 0 5.52459 0 5.76032C0 5.95822 0.0641667 6.12993 0.23625 6.30164C1.2425 7.35807 2.85542 8.62405 5.19458 10.0908C7.3325 11.415 9.54042 12.6228 11.8052 13.7171C12.1494 13.8771 12.2544 14.0605 12.2544 14.2584C12.2427 14.4825 12.0706 14.6658 11.671 14.6658H5.97917C5.66417 14.6658 5.4775 14.8404 5.4775 15.1024C5.4775 15.2479 5.59417 15.4312 5.75458 15.5767C7.04958 16.7525 9.12479 18.033 11.8898 19.2059C15.5794 20.7774 19.3185 21.7102 23.5273 21.7102C31.4971 21.7102 35 15.763 35 11.1036L34.9971 11.1065ZM24.5948 18.5336C20.5202 18.5336 17.1106 15.2217 17.1106 11.092C17.1106 7.0263 20.5085 3.75804 24.5948 3.75804C28.77 3.75804 32.0483 7.01757 32.0483 11.092C32.0537 12.0704 31.8647 13.0401 31.4921 13.9451C31.1195 14.8501 30.5707 15.6724 29.8776 16.3645C29.1844 17.0565 28.3606 17.6046 27.4539 17.9769C26.5471 18.3492 25.5753 18.5384 24.5948 18.5336Z" fill="white"/>
</svg>
