<svg width="32" height="25" viewBox="0 0 32 25" fill="none" xmlns="http://www.w3.org/2000/svg">
<path d="M32 12.2077V13.2763C31.9884 13.334 31.9787 13.3917 31.9707 13.4494C31.9173 13.9133 31.8813 14.3827 31.8053 14.8426C31.5613 16.3288 31.0283 17.7509 30.2373 19.0262C29.0689 20.9538 27.383 22.5036 25.3773 23.4939C24.2011 24.0856 22.9324 24.4655 21.628 24.6166L20.7587 24.7126H9.51733C9.46 24.7018 9.404 24.6855 9.34667 24.6815C8.22107 24.6129 7.11618 24.3437 6.08267 23.8861C3.82 22.8812 2.13333 21.2526 1.028 19.0113C0.540463 18.0231 0.224718 16.9569 0.0946667 15.8597L0 15.0576V14.0202C0.0106667 13.962 0.0266667 13.9052 0.0306667 13.8471C0.0847868 12.8559 0.292209 11.8796 0.645333 10.9538C1.6 8.45285 3.26667 6.59977 5.62933 5.39595C6.84605 4.78239 8.17591 4.43406 9.53333 4.37338C10.2027 4.34055 10.8737 4.3718 11.5373 4.46671C11.606 4.47153 11.6738 4.44923 11.7267 4.40449C12.6747 3.41715 13.7828 2.60231 15.0027 1.99549C16.1854 1.40283 17.4601 1.02166 18.7707 0.86876C19.0818 0.833592 19.3929 0.800679 19.704 0.77002H20.664C20.7262 0.78084 20.7884 0.790309 20.8507 0.798424C21.3267 0.855234 21.804 0.890402 22.2747 0.970206C23.7286 1.22049 25.1204 1.75621 26.372 2.54735C28.2813 3.73205 29.8168 5.44603 30.7973 7.48709C31.3813 8.68144 31.756 9.96913 31.904 11.2933L32 12.2077ZM14.1067 5.2918C14.1267 5.31885 14.132 5.32967 14.14 5.33373C14.7987 5.66377 15.4253 6.04836 16.02 6.48751C16.0573 6.51456 16.1507 6.50374 16.196 6.47398C17.8253 5.42706 19.592 5.06591 21.4893 5.40677C23.3493 5.74087 24.8627 6.68363 26.0187 8.18909C27.328 9.89338 27.828 11.8195 27.4653 13.9647C27.224 15.3999 26.656 16.6889 25.692 17.7683C23.932 19.7377 21.7293 20.5506 19.136 20.207C17.5711 20.0085 16.1198 19.2747 15.0213 18.1267C13.5573 16.6253 12.0827 15.1361 10.6147 13.6388C10.4187 13.4399 10.2013 13.2803 9.92 13.2452C9.68626 13.2127 9.44842 13.2569 9.24118 13.3713C9.03394 13.4856 8.86815 13.6642 8.768 13.8809C8.57867 14.2813 8.60267 14.733 9.01467 15.1442C10.6507 16.7741 12.2733 18.4189 13.908 20.0501C14.188 20.3324 14.4876 20.5907 14.8067 20.8252C16.0013 21.7044 17.348 22.1913 18.8067 22.3874C19.9411 22.5489 21.0948 22.5031 22.2133 22.2522C24.3116 21.7926 26.1928 20.6214 27.5467 18.9315C28.6913 17.5407 29.4203 15.847 29.648 14.05C29.7914 13.0063 29.7621 11.9457 29.5613 10.9119C29.236 9.21978 28.5307 7.70621 27.4013 6.41852C25.244 3.96218 22.5307 2.86521 19.3027 3.11004C18.0702 3.21125 16.8715 3.56901 15.7813 4.16102C15.185 4.47572 14.624 4.85485 14.108 5.2918H14.1067ZM13.3187 22.4388L13.1853 22.3131C12.5173 21.6719 11.844 21.0348 11.1827 20.3856C11.1297 20.3246 11.0638 20.2765 10.9899 20.2449C10.916 20.2132 10.8361 20.1989 10.756 20.203C10.0867 20.2192 9.416 20.2233 8.756 20.0718C5.47467 19.3184 3.56933 15.6988 4.77867 12.5147C5.732 10.0029 8.37333 8.47314 10.9773 8.9452C12.144 9.15621 13.1693 9.65803 14.0107 10.5372C15.036 11.6112 16.0907 12.6554 17.128 13.7186C17.364 13.9607 17.6347 14.0702 17.9627 14.0229C18.384 13.962 18.7213 13.7578 18.8733 13.3371C18.951 13.1482 18.9705 12.9399 18.9294 12.7396C18.8882 12.5392 18.7883 12.3561 18.6427 12.2145C17.5547 11.0972 16.492 9.95154 15.36 8.88028C13.164 6.80267 10.576 6.18587 7.712 7.06778C3.86133 8.25537 1.60667 12.2889 2.48667 16.2709C2.867 18.0242 3.82699 19.5927 5.20726 20.7162C6.58754 21.8396 8.30506 22.4503 10.0747 22.447H13.14C13.1907 22.447 13.2413 22.4429 13.3187 22.4388Z" fill="white"/>
</svg>
